<?xml version="1.0" encoding="UTF-8" standalone="no"?>
<!DOCTYPE svg PUBLIC "-//W3C//DTD SVG 1.1//EN" "http://www.w3.org/Graphics/SVG/1.1/DTD/svg11.dtd">
<!-- Generated by Microsoft Visio, SVG Export ClientServer.svg Page-1 -->
<svg xmlns="http://www.w3.org/2000/svg" xmlns:xlink="http://www.w3.org/1999/xlink" xmlns:ev="http://www.w3.org/2001/xml-events"
		xmlns:v="http://schemas.microsoft.com/visio/2003/SVGExtensions/" width="7.66957in" height="3.32558in"
		viewBox="0 0 552.209 239.442" xml:space="preserve" color-interpolation-filters="sRGB" class="st13">
	<v:documentProperties v:langID="1033" v:viewMarkup="false">
		<v:userDefs>
			<v:ud v:nameU="msvNoAutoConnect" v:val="VT0(1):26"/>
		</v:userDefs>
	</v:documentProperties>

	<style type="text/css">
	<![CDATA[
		.st1 {fill:#00188f;stroke:none;stroke-linecap:butt;stroke-width:0.75}
		.st2 {fill:#00188f;font-family:Segoe UI;font-size:0.75em}
		.st3 {fill:#e3991c;stroke:none;stroke-linecap:butt;stroke-width:0.75}
		.st4 {fill:#0070c0;stroke:#000000;stroke-linecap:round;stroke-linejoin:round;stroke-width:0.24}
		.st5 {fill:#ffffff;font-family:Calibri;font-size:0.666664em}
		.st6 {fill:#595959;stroke:none;stroke-linecap:butt;stroke-width:0.75}
		.st7 {fill:#ff0000;stroke:#cc0000;stroke-linecap:round;stroke-linejoin:round;stroke-width:0.07}
		.st8 {fill:none;stroke:none;stroke-linecap:round;stroke-linejoin:round;stroke-width:0.75}
		.st9 {fill:#ff0000;font-family:Calibri;font-size:1.00001em;font-weight:bold}
		.st10 {marker-end:url(#mrkr4-99);stroke:#0070c0;stroke-linecap:round;stroke-linejoin:round;stroke-opacity:0.98;stroke-width:2.75}
		.st11 {fill:#0070c0;fill-opacity:0.98;stroke:#0070c0;stroke-opacity:0.98;stroke-width:0.52182163187856}
		.st12 {fill:#0070c0;font-family:Calibri;font-size:1.00001em;font-weight:bold}
		.st13 {fill:none;fill-rule:evenodd;font-size:12px;overflow:visible;stroke-linecap:square;stroke-miterlimit:3}
	]]>
	</style>

	<defs id="Markers">
		<g id="lend4">
			<path d="M 2 1 L 0 0 L 2 -1 L 2 1 " style="stroke:none"/>
		</g>
		<marker id="mrkr4-99" class="st11" v:arrowType="4" v:arrowSize="2" v:setback="3.83273" refX="-3.8327272727273"
				orient="auto" markerUnits="strokeWidth" overflow="visible">
			<use xlink:href="#lend4" transform="scale(-1.9163636363636,-1.9163636363636) "/>
		</marker>
	</defs>
	<g v:mID="0" v:index="1" v:groupContext="foregroundPage">
		<title>Page-1</title>
		<v:pageProperties v:drawingScale="1" v:pageScale="1" v:drawingUnits="19" v:shadowOffsetX="9" v:shadowOffsetY="-9"/>
		<v:layer v:name="Network" v:index="0"/>
		<v:layer v:name="On-premises applications" v:index="1"/>
		<v:layer v:name="Flowchart" v:index="2"/>
		<v:layer v:name="Transportation" v:index="3"/>
		<v:layer v:name="Annotations" v:index="4"/>
		<v:layer v:name="Road" v:index="5"/>
		<v:layer v:name="Flow Segment" v:index="6"/>
		<v:layer v:name="Data Graphic" v:index="7"/>
		<v:layer v:name="Connector" v:index="8"/>
		<g id="group1-1" transform="translate(48.3521,-62.5244)" v:mID="1" v:groupContext="group">
			<title>Client  application</title>
			<desc>Source Machine</desc>
			<g id="shape2-2" v:mID="2" v:groupContext="shape" transform="translate(13.5602,-10.372)">
				<title>Sheet.2</title>
				<path d="M0 216.81 L0 239.44 L33.95 239.44 L33.95 216.81 L0 216.81 ZM9.43 237.56 L1.89 237.56 L1.89 223.41 L9.43
							 223.41 L9.43 237.56 ZM32.06 237.56 L11.32 237.56 L11.32 223.41 L32.06 223.41 L32.06 237.56 Z"
						class="st1"/>
			</g>
			<g id="shape3-4" v:mID="3" v:groupContext="shape" transform="translate(30.5341,-22.6309)">
				<title>Sheet.3</title>
				<rect x="0" y="237.556" width="10.3729" height="1.88599" class="st1"/>
			</g>
			<g id="shape4-6" v:mID="4" v:groupContext="shape" transform="translate(30.5341,-19.8019)">
				<title>Sheet.4</title>
				<rect x="0" y="237.556" width="10.3729" height="1.88599" class="st1"/>
			</g>
			<g id="shape5-8" v:mID="5" v:groupContext="shape" transform="translate(30.5341,-16.9729)">
				<title>Sheet.5</title>
				<rect x="0" y="237.556" width="10.3729" height="1.88599" class="st1"/>
			</g>
			<g id="shape6-10" v:mID="6" v:groupContext="shape" transform="translate(30.5341,-14.144)">
				<title>Sheet.6</title>
				<rect x="0" y="237.556" width="10.3729" height="1.88599" class="st1"/>
			</g>
			<g id="shape7-12" v:mID="7" v:groupContext="shape" transform="translate(15.4462,-28.2889)">
				<title>Sheet.7</title>
				<rect x="0" y="236.613" width="30.1758" height="2.82898" class="st1"/>
			</g>
			<g id="shape8-14" v:mID="8" v:groupContext="shape">
				<title>Sheet.8</title>
				<path d="M55.05 231.24 C55.05 205.14 55.05 205.14 55.05 205.14 C55.05 203.9 54.48 201.73 53.05 201.73 C49.87 201.73
							 7.94 201.72 7.94 201.72 C6.5 201.72 5.08 203.9 5.08 205.14 C5.08 231.24 5.08 231.24 5.08 231.24 C-0
							 236.71 0.27 236.71 0.27 236.71 C0.27 238.2 1.07 239.44 3.19 239.44 C18.28 239.44 56.94 239.44 56.94
							 239.44 C58.66 239.44 59.77 238.2 59.77 236.71 L55.05 231.24 ZM34.71 237.22 C25.33 237.22 25.33 237.22
							 25.33 237.22 C24.83 237.22 24.4 237.03 24.4 236.78 C25.48 235.04 25.48 235.04 25.48 235.04 C25.48 234.85
							 25.84 234.73 26.27 234.73 C33.78 234.73 33.78 234.73 33.78 234.73 C34.14 234.73 34.5 234.85 34.5 235.04
							 C35.65 236.78 35.65 236.78 35.65 236.78 C35.65 237.03 35.22 237.22 34.71 237.22 ZM53.17 230.91 L53.17
							 230.96 C46.57 230.96 6.96 230.96 6.96 230.96 C6.96 206.07 6.96 205.5 6.96 205.49 C6.96 204.87 7.54 203.61
							 8.25 203.61 C51.53 203.61 51.98 203.61 51.98 203.61 C52.7 203.61 53.17 204.43 53.17 205.05 L53.17 230.91
							 Z" class="st1"/>
			</g>
			<g id="shape1-16" v:mID="1" v:groupContext="groupContent">
				<v:textBlock v:margins="rect(0,0,0,0)" v:verticalAlign="0"/>
				<v:textRect cx="29.825" cy="265.106" width="90.53" height="37.7197"/>
				<text x="-1.92" y="254.35" class="st2" v:langID="1033"><v:paragraph v:horizAlign="1"/><v:tabList/>Source Machine</text>			</g>
		</g>
		<g id="group112-18" transform="translate(459.12,-63.3843)" v:mID="112" v:groupContext="group">
			<title>Client  application.112</title>
			<desc>Destination Machine</desc>
			<g id="shape113-19" v:mID="113" v:groupContext="shape" transform="translate(13.5602,-10.372)">
				<title>Sheet.113</title>
				<path d="M0 216.81 L0 239.44 L33.95 239.44 L33.95 216.81 L0 216.81 ZM9.43 237.56 L1.89 237.56 L1.89 223.41 L9.43
							 223.41 L9.43 237.56 ZM32.06 237.56 L11.32 237.56 L11.32 223.41 L32.06 223.41 L32.06 237.56 Z"
						class="st3"/>
			</g>
			<g id="shape114-21" v:mID="114" v:groupContext="shape" transform="translate(30.5341,-22.6309)">
				<title>Sheet.114</title>
				<rect x="0" y="237.556" width="10.3729" height="1.88599" class="st3"/>
			</g>
			<g id="shape115-23" v:mID="115" v:groupContext="shape" transform="translate(30.5341,-19.8019)">
				<title>Sheet.115</title>
				<rect x="0" y="237.556" width="10.3729" height="1.88599" class="st3"/>
			</g>
			<g id="shape116-25" v:mID="116" v:groupContext="shape" transform="translate(30.5341,-16.9729)">
				<title>Sheet.116</title>
				<rect x="0" y="237.556" width="10.3729" height="1.88599" class="st3"/>
			</g>
			<g id="shape117-27" v:mID="117" v:groupContext="shape" transform="translate(30.5341,-14.144)">
				<title>Sheet.117</title>
				<rect x="0" y="237.556" width="10.3729" height="1.88599" class="st3"/>
			</g>
			<g id="shape118-29" v:mID="118" v:groupContext="shape" transform="translate(15.4462,-28.2889)">
				<title>Sheet.118</title>
				<rect x="0" y="236.613" width="30.1758" height="2.82898" class="st3"/>
			</g>
			<g id="shape119-31" v:mID="119" v:groupContext="shape">
				<title>Sheet.119</title>
				<path d="M55.05 231.24 C55.05 205.14 55.05 205.14 55.05 205.14 C55.05 203.9 54.48 201.73 53.05 201.73 C49.87 201.73
							 7.94 201.72 7.94 201.72 C6.5 201.72 5.08 203.9 5.08 205.14 C5.08 231.24 5.08 231.24 5.08 231.24 C-0
							 236.71 0.27 236.71 0.27 236.71 C0.27 238.2 1.07 239.44 3.19 239.44 C18.28 239.44 56.94 239.44 56.94
							 239.44 C58.66 239.44 59.77 238.2 59.77 236.71 L55.05 231.24 ZM34.71 237.22 C25.33 237.22 25.33 237.22
							 25.33 237.22 C24.83 237.22 24.4 237.03 24.4 236.78 C25.48 235.04 25.48 235.04 25.48 235.04 C25.48 234.85
							 25.84 234.73 26.27 234.73 C33.78 234.73 33.78 234.73 33.78 234.73 C34.14 234.73 34.5 234.85 34.5 235.04
							 C35.65 236.78 35.65 236.78 35.65 236.78 C35.65 237.03 35.22 237.22 34.71 237.22 ZM53.17 230.91 L53.17
							 230.96 C46.57 230.96 6.96 230.96 6.96 230.96 C6.96 206.07 6.96 205.5 6.96 205.49 C6.96 204.87 7.54 203.61
							 8.25 203.61 C51.53 203.61 51.98 203.61 51.98 203.61 C52.7 203.61 53.17 204.43 53.17 205.05 L53.17 230.91
							 Z" class="st3"/>
			</g>
			<g id="shape112-33" v:mID="112" v:groupContext="groupContent">
				<v:textBlock v:margins="rect(0,0,0,0)" v:verticalAlign="0"/>
				<v:textRect cx="29.825" cy="265.106" width="90.53" height="37.7197"/>
				<text x="-11.02" y="254.35" class="st2" v:langID="1033"><v:paragraph v:horizAlign="1"/><v:tabList/>Destination Machine</text>			</g>
		</g>
		<g id="shape123-35" v:mID="123" v:groupContext="shape" transform="translate(363.87,-208.244)">
			<title>Rectangle.123</title>
			<desc>N/W Packets</desc>
			<v:userDefs>
				<v:ud v:nameU="visVersion" v:val="VT0(15):26"/>
			</v:userDefs>
			<v:textBlock v:margins="rect(4,4,4,4)"/>
			<v:textRect cx="25.125" cy="232.903" width="50.26" height="13.0774"/>
			<rect x="0" y="226.364" width="50.25" height="13.0774" class="st4"/>
			<text x="4.15" y="235.3" class="st5" v:langID="1033"><v:paragraph v:horizAlign="1"/><v:tabList/>N/W Packets</text>		</g>
		<g id="group147-38" transform="translate(63.12,-181.244)" v:mID="147" v:groupContext="group">
			<title>Router.16</title>
			<desc>Router</desc>
			<g id="shape148-39" v:mID="148" v:groupContext="shape" transform="translate(5.25,-9)">
				<title>Sheet.148</title>
				<path d="M27.84 231.94 L1.41 231.94 C0.63 231.94 -0 232.42 0 233.02 L0 238.37 C-0 238.96 0.63 239.44 1.41 239.44
							 L27.84 239.44 C28.62 239.44 29.25 238.96 29.25 238.37 L29.25 233.02 C29.25 232.42 28.62 231.94 27.84
							 231.94 ZM4.5 237.19 C3.67 237.19 3 236.52 3 235.69 C3 234.86 3.67 234.19 4.5 234.19 C5.33 234.19 6 234.86
							 6 235.69 C6 236.52 5.33 237.19 4.5 237.19 ZM11.25 237.19 C10.42 237.19 9.75 236.52 9.75 235.69 C9.75
							 234.86 10.42 234.19 11.25 234.19 C12.08 234.19 12.75 234.86 12.75 235.69 C12.75 236.52 12.08 237.19
							 11.25 237.19 ZM18 237.19 C17.17 237.19 16.5 236.52 16.5 235.69 C16.5 234.86 17.17 234.19 18 234.19 C18.83
							 234.19 19.5 234.86 19.5 235.69 C19.5 236.52 18.83 237.19 18 237.19 ZM24.75 237.19 C23.92 237.19 23.25
							 236.52 23.25 235.69 C23.25 234.86 23.92 234.19 24.75 234.19 C25.58 234.19 26.25 234.86 26.25 235.69
							 C26.25 236.52 25.58 237.19 24.75 237.19 Z" class="st6"/>
			</g>
			<g id="shape149-41" v:mID="149" v:groupContext="shape" transform="translate(5.25,-18.75)">
				<title>Sheet.149</title>
				<path d="M23.84 234.19 L5.41 234.19 L0 239.44 L29.25 239.44 L23.84 234.19 Z" class="st6"/>
			</g>
			<g id="shape150-43" v:mID="150" v:groupContext="shape" transform="translate(32.8553,-23.8552)">
				<title>Sheet.150</title>
				<path d="M5.57 234.93 L5.57 239.18 L6.89 237.85 L6.89 232.55 L1.59 232.55 L0.26 233.87 L4.51 233.87 L0 238.38 L1.06
							 239.44 L5.57 234.93 Z" class="st6"/>
			</g>
			<g id="shape151-45" v:mID="151" v:groupContext="shape" transform="translate(32.8553,5.68434E-14)">
				<title>Sheet.151</title>
				<path d="M5.57 237.06 L5.57 232.81 L6.89 234.14 L6.89 239.44 L1.59 239.44 L0.26 238.12 L4.51 238.12 L0 233.61 L1.06
							 232.55 L5.57 237.06 Z" class="st6"/>
			</g>
			<g id="shape152-47" v:mID="152" v:groupContext="shape" transform="translate(0.75,-23.8552)">
				<title>Sheet.152</title>
				<v:textBlock v:margins="rect(0,0,0,0)" v:verticalAlign="0"/>
				<path d="M1.33 234.93 L1.33 239.18 L0 237.85 L0 232.55 L5.3 232.55 L6.63 233.87 L2.39 233.87 L6.89 238.38 L5.83 239.44
							 L1.33 234.93 Z" class="st6"/>
			</g>
			<g id="shape153-49" v:mID="153" v:groupContext="shape">
				<title>Sheet.153</title>
				<path d="M1.33 237.06 L1.33 232.81 L0 234.14 L0 239.44 L5.3 239.44 L6.63 238.12 L2.39 238.12 L6.89 233.61 L5.83 232.55
							 L1.33 237.06 Z" class="st6"/>
			</g>
			<g id="shape147-51" v:mID="147" v:groupContext="groupContent">
				<v:textBlock v:margins="rect(4,4,4,4)" v:verticalAlign="0"/>
				<v:textRect cx="19.7746" cy="260.499" width="72" height="31.5"/>
				<text x="6.46" y="256.85" class="st2" v:langID="1033"><v:paragraph v:horizAlign="1"/><v:tabList/>Router</text>			</g>
		</g>
		<g id="group154-53" transform="translate(469.129,-181.244)" v:mID="154" v:groupContext="group">
			<title>Router.154</title>
			<desc>Router</desc>
			<g id="shape155-54" v:mID="155" v:groupContext="shape" transform="translate(5.25,-9)">
				<title>Sheet.155</title>
				<path d="M27.84 231.94 L1.41 231.94 C0.63 231.94 -0 232.42 0 233.02 L0 238.37 C-0 238.96 0.63 239.44 1.41 239.44
							 L27.84 239.44 C28.62 239.44 29.25 238.96 29.25 238.37 L29.25 233.02 C29.25 232.42 28.62 231.94 27.84
							 231.94 ZM4.5 237.19 C3.67 237.19 3 236.52 3 235.69 C3 234.86 3.67 234.19 4.5 234.19 C5.33 234.19 6 234.86
							 6 235.69 C6 236.52 5.33 237.19 4.5 237.19 ZM11.25 237.19 C10.42 237.19 9.75 236.52 9.75 235.69 C9.75
							 234.86 10.42 234.19 11.25 234.19 C12.08 234.19 12.75 234.86 12.75 235.69 C12.75 236.52 12.08 237.19
							 11.25 237.19 ZM18 237.19 C17.17 237.19 16.5 236.52 16.5 235.69 C16.5 234.86 17.17 234.19 18 234.19 C18.83
							 234.19 19.5 234.86 19.5 235.69 C19.5 236.52 18.83 237.19 18 237.19 ZM24.75 237.19 C23.92 237.19 23.25
							 236.52 23.25 235.69 C23.25 234.86 23.92 234.19 24.75 234.19 C25.58 234.19 26.25 234.86 26.25 235.69
							 C26.25 236.52 25.58 237.19 24.75 237.19 Z" class="st6"/>
			</g>
			<g id="shape156-56" v:mID="156" v:groupContext="shape" transform="translate(5.25,-18.75)">
				<title>Sheet.156</title>
				<path d="M23.84 234.19 L5.41 234.19 L0 239.44 L29.25 239.44 L23.84 234.19 Z" class="st6"/>
			</g>
			<g id="shape157-58" v:mID="157" v:groupContext="shape" transform="translate(32.8553,-23.8552)">
				<title>Sheet.157</title>
				<path d="M5.57 234.93 L5.57 239.18 L6.89 237.85 L6.89 232.55 L1.59 232.55 L0.26 233.87 L4.51 233.87 L0 238.38 L1.06
							 239.44 L5.57 234.93 Z" class="st6"/>
			</g>
			<g id="shape158-60" v:mID="158" v:groupContext="shape" transform="translate(32.8553,5.68434E-14)">
				<title>Sheet.158</title>
				<path d="M5.57 237.06 L5.57 232.81 L6.89 234.14 L6.89 239.44 L1.59 239.44 L0.26 238.12 L4.51 238.12 L0 233.61 L1.06
							 232.55 L5.57 237.06 Z" class="st6"/>
			</g>
			<g id="shape159-62" v:mID="159" v:groupContext="shape" transform="translate(0.75,-23.8552)">
				<title>Sheet.159</title>
				<v:textBlock v:margins="rect(0,0,0,0)" v:verticalAlign="0"/>
				<path d="M1.33 234.93 L1.33 239.18 L0 237.85 L0 232.55 L5.3 232.55 L6.63 233.87 L2.39 233.87 L6.89 238.38 L5.83 239.44
							 L1.33 234.93 Z" class="st6"/>
			</g>
			<g id="shape160-64" v:mID="160" v:groupContext="shape">
				<title>Sheet.160</title>
				<path d="M1.33 237.06 L1.33 232.81 L0 234.14 L0 239.44 L5.3 239.44 L6.63 238.12 L2.39 238.12 L6.89 233.61 L5.83 232.55
							 L1.33 237.06 Z" class="st6"/>
			</g>
			<g id="shape154-66" v:mID="154" v:groupContext="groupContent">
				<v:textBlock v:margins="rect(4,4,4,4)" v:verticalAlign="0"/>
				<v:textRect cx="19.7746" cy="260.499" width="72" height="31.5"/>
				<text x="6.46" y="256.85" class="st2" v:langID="1033"><v:paragraph v:horizAlign="1"/><v:tabList/>Router</text>			</g>
		</g>
		<g id="group161-68" transform="translate(259.245,-181.244)" v:mID="161" v:groupContext="group">
			<title>Router.161</title>
			<desc>Router</desc>
			<g id="shape162-69" v:mID="162" v:groupContext="shape" transform="translate(5.25,-9)">
				<title>Sheet.162</title>
				<path d="M27.84 231.94 L1.41 231.94 C0.63 231.94 -0 232.42 0 233.02 L0 238.37 C-0 238.96 0.63 239.44 1.41 239.44
							 L27.84 239.44 C28.62 239.44 29.25 238.96 29.25 238.37 L29.25 233.02 C29.25 232.42 28.62 231.94 27.84
							 231.94 ZM4.5 237.19 C3.67 237.19 3 236.52 3 235.69 C3 234.86 3.67 234.19 4.5 234.19 C5.33 234.19 6 234.86
							 6 235.69 C6 236.52 5.33 237.19 4.5 237.19 ZM11.25 237.19 C10.42 237.19 9.75 236.52 9.75 235.69 C9.75
							 234.86 10.42 234.19 11.25 234.19 C12.08 234.19 12.75 234.86 12.75 235.69 C12.75 236.52 12.08 237.19
							 11.25 237.19 ZM18 237.19 C17.17 237.19 16.5 236.52 16.5 235.69 C16.5 234.86 17.17 234.19 18 234.19 C18.83
							 234.19 19.5 234.86 19.5 235.69 C19.5 236.52 18.83 237.19 18 237.19 ZM24.75 237.19 C23.92 237.19 23.25
							 236.52 23.25 235.69 C23.25 234.86 23.92 234.19 24.75 234.19 C25.58 234.19 26.25 234.86 26.25 235.69
							 C26.25 236.52 25.58 237.19 24.75 237.19 Z" class="st6"/>
			</g>
			<g id="shape163-71" v:mID="163" v:groupContext="shape" transform="translate(5.25,-18.75)">
				<title>Sheet.163</title>
				<path d="M23.84 234.19 L5.41 234.19 L0 239.44 L29.25 239.44 L23.84 234.19 Z" class="st6"/>
			</g>
			<g id="shape164-73" v:mID="164" v:groupContext="shape" transform="translate(32.8553,-23.8552)">
				<title>Sheet.164</title>
				<path d="M5.57 234.93 L5.57 239.18 L6.89 237.85 L6.89 232.55 L1.59 232.55 L0.26 233.87 L4.51 233.87 L0 238.38 L1.06
							 239.44 L5.57 234.93 Z" class="st6"/>
			</g>
			<g id="shape165-75" v:mID="165" v:groupContext="shape" transform="translate(32.8553,5.68434E-14)">
				<title>Sheet.165</title>
				<path d="M5.57 237.06 L5.57 232.81 L6.89 234.14 L6.89 239.44 L1.59 239.44 L0.26 238.12 L4.51 238.12 L0 233.61 L1.06
							 232.55 L5.57 237.06 Z" class="st6"/>
			</g>
			<g id="shape166-77" v:mID="166" v:groupContext="shape" transform="translate(0.75,-23.8552)">
				<title>Sheet.166</title>
				<v:textBlock v:margins="rect(0,0,0,0)" v:verticalAlign="0"/>
				<path d="M1.33 234.93 L1.33 239.18 L0 237.85 L0 232.55 L5.3 232.55 L6.63 233.87 L2.39 233.87 L6.89 238.38 L5.83 239.44
							 L1.33 234.93 Z" class="st6"/>
			</g>
			<g id="shape167-79" v:mID="167" v:groupContext="shape">
				<title>Sheet.167</title>
				<path d="M1.33 237.06 L1.33 232.81 L0 234.14 L0 239.44 L5.3 239.44 L6.63 238.12 L2.39 238.12 L6.89 233.61 L5.83 232.55
							 L1.33 237.06 Z" class="st6"/>
			</g>
			<g id="shape161-81" v:mID="161" v:groupContext="groupContent">
				<v:textBlock v:margins="rect(4,4,4,4)" v:verticalAlign="0"/>
				<v:textRect cx="19.7746" cy="260.499" width="72" height="31.5"/>
				<text x="6.46" y="256.85" class="st2" v:langID="1033"><v:paragraph v:horizAlign="1"/><v:tabList/>Router</text>			</g>
		</g>
		<g id="shape185-83" v:mID="185" v:groupContext="shape" transform="translate(469.433,-119.104)">
			<title>Question</title>
			<v:userDefs>
				<v:ud v:nameU="visLegendShape" v:val="VT0(2):26"/>
				<v:ud v:nameU="visLocToPar" v:val="VT7(PNT(0.95,0.9)):40"/>
				<v:ud v:nameU="visVersion" v:val="VT0(15):26"/>
				<v:ud v:nameU="visLocToPar" v:prompt="" v:val="VT7(PNT(6.5198961346965,1.654222218051)):40"/>
				<v:ud v:nameU="visIsConnected" v:prompt="" v:val="VT0(0):26"/>
			</v:userDefs>
			<path d="M9.21 237.24 A2.05442 2.1985 -180 1 0 5.1 237.24 A2.05442 2.1985 -180 1 0 9.21 237.24 ZM9.11 211.56 A4.05732
						 4.34186 0 0 1 11.75 214.38 A8.0377 8.60138 0 0 1 10.15 221.96 A16.9863 18.1775 -180 0 0 6.39 232.22 a0.819674
						 0.877157 -180 0 0 1.54082 0.22901 A15.527 16.6159 0 0 1 10.92 225.17 A29.5239 31.5944 -180 0 0 14.26 220.13
						 A6.82243 7.30088 -180 0 0 10.5 209.14 A9.05752 9.69272 -180 0 0 0.91 212.07 A5.2005 5.56521 -180 0 0 0.31
						 217.11 A1.87123 2.00245 -180 0 0 3.73 216.01 A5.36233 5.73839 -180 0 0 2.96 213.53 A5.54725 5.93627 0 0
						 1 9.11 211.56 Z" class="st7"/>
		</g>
		<g id="shape187-85" v:mID="187" v:groupContext="shape" transform="translate(156.87,-208.244)">
			<title>Rectangle.187</title>
			<desc>N/W Packets</desc>
			<v:userDefs>
				<v:ud v:nameU="visVersion" v:val="VT0(15):26"/>
			</v:userDefs>
			<v:textBlock v:margins="rect(4,4,4,4)"/>
			<v:textRect cx="25.125" cy="232.903" width="50.26" height="13.0774"/>
			<rect x="0" y="226.364" width="50.25" height="13.0774" class="st4"/>
			<text x="4.15" y="235.3" class="st5" v:langID="1033"><v:paragraph v:horizAlign="1"/><v:tabList/>N/W Packets</text>		</g>
		<g id="shape188-88" v:mID="188" v:groupContext="shape" transform="translate(18.12,-127.244)">
			<title>Rectangle.188</title>
			<desc>N/W Packets</desc>
			<v:userDefs>
				<v:ud v:nameU="visVersion" v:val="VT0(15):26"/>
			</v:userDefs>
			<v:textBlock v:margins="rect(4,4,4,4)"/>
			<v:textRect cx="25.125" cy="232.903" width="50.26" height="13.0774"/>
			<rect x="0" y="226.364" width="50.25" height="13.0774" class="st4"/>
			<text x="4.15" y="235.3" class="st5" v:langID="1033"><v:paragraph v:horizAlign="1"/><v:tabList/>N/W Packets</text>		</g>
		<g id="shape189-91" v:mID="189" v:groupContext="shape" v:layerMember="4" transform="translate(376.504,-128.104)">
			<title>12pt. text</title>
			<desc>Able To Connect</desc>
			<v:userDefs>
				<v:ud v:nameU="AntiScale" v:val="VT0(1):26"/>
				<v:ud v:nameU="AutoWidth" v:val="VT0(0.375):0"/>
				<v:ud v:nameU="WidthIncrement" v:val="VT0(0.125):0"/>
				<v:ud v:nameU="visVersion" v:val="VT0(15):26"/>
				<v:ud v:nameU="AutoWidth" v:prompt="" v:val="VT0(1.25):0"/>
			</v:userDefs>
			<v:textBlock v:margins="rect(0,0,0,0)"/>
			<v:textRect cx="45" cy="230.442" width="90" height="18"/>
			<rect x="0" y="221.442" width="90" height="18" class="st8"/>
			<text x="4.29" y="234.04" class="st9" v:langID="1033"><v:paragraph v:horizAlign="1"/><v:tabList/>Able To Connect</text>		</g>
		<g id="shape200-94" v:mID="200" v:groupContext="shape" v:layerMember="8"
				transform="translate(-158.322,130.197) rotate(-90)">
			<title>1 legged connector</title>
			<v:userDefs>
				<v:ud v:nameU="visVersion" v:val="VT0(15):26"/>
			</v:userDefs>
			<path d="M0 239.44 L38.8 239.44" class="st10"/>
		</g>
		<g id="shape201-100" v:mID="201" v:groupContext="shape" v:layerMember="8" transform="translate(117.12,-199.244)">
			<title>1 legged connector.201</title>
			<v:userDefs>
				<v:ud v:nameU="visVersion" v:val="VT0(15):26"/>
			</v:userDefs>
			<path d="M0 239.44 L115.46 239.44" class="st10"/>
		</g>
		<g id="shape202-105" v:mID="202" v:groupContext="shape" v:layerMember="8" transform="translate(315.12,-199.244)">
			<title>1 legged connector.202</title>
			<v:userDefs>
				<v:ud v:nameU="visVersion" v:val="VT0(15):26"/>
			</v:userDefs>
			<path d="M0 239.44 L133.46 239.44" class="st10"/>
		</g>
		<g id="shape203-110" v:mID="203" v:groupContext="shape" transform="translate(363.87,-177.167)">
			<title>Rectangle.203</title>
			<desc>N/W Packets</desc>
			<v:userDefs>
				<v:ud v:nameU="visVersion" v:val="VT0(15):26"/>
			</v:userDefs>
			<v:textBlock v:margins="rect(4,4,4,4)"/>
			<v:textRect cx="25.125" cy="232.903" width="50.26" height="13.0774"/>
			<rect x="0" y="226.364" width="50.25" height="13.0774" class="st4"/>
			<text x="4.15" y="235.3" class="st5" v:langID="1033"><v:paragraph v:horizAlign="1"/><v:tabList/>N/W Packets</text>		</g>
		<g id="shape204-113" v:mID="204" v:groupContext="shape" transform="translate(156.87,-174.705)">
			<title>Rectangle.204</title>
			<desc>N/W Packets</desc>
			<v:userDefs>
				<v:ud v:nameU="visVersion" v:val="VT0(15):26"/>
			</v:userDefs>
			<v:textBlock v:margins="rect(4,4,4,4)"/>
			<v:textRect cx="25.125" cy="232.903" width="50.26" height="13.0774"/>
			<rect x="0" y="226.364" width="50.25" height="13.0774" class="st4"/>
			<text x="4.15" y="235.3" class="st5" v:langID="1033"><v:paragraph v:horizAlign="1"/><v:tabList/>N/W Packets</text>		</g>
		<g id="shape205-116" v:mID="205" v:groupContext="shape" transform="translate(93.87,-127.244)">
			<title>Rectangle.205</title>
			<desc>N/W Packets</desc>
			<v:userDefs>
				<v:ud v:nameU="visVersion" v:val="VT0(15):26"/>
			</v:userDefs>
			<v:textBlock v:margins="rect(4,4,4,4)"/>
			<v:textRect cx="25.125" cy="232.903" width="50.26" height="13.0774"/>
			<rect x="0" y="226.364" width="50.25" height="13.0774" class="st4"/>
			<text x="4.15" y="235.3" class="st5" v:langID="1033"><v:paragraph v:horizAlign="1"/><v:tabList/>N/W Packets</text>		</g>
		<g id="shape210-119" v:mID="210" v:groupContext="shape" transform="translate(493.504,-119.104)">
			<title>Question.210</title>
			<v:userDefs>
				<v:ud v:nameU="visLegendShape" v:val="VT0(2):26"/>
				<v:ud v:nameU="visLocToPar" v:val="VT7(PNT(0.95,0.9)):40"/>
				<v:ud v:nameU="visVersion" v:val="VT0(15):26"/>
				<v:ud v:nameU="visLocToPar" v:prompt="" v:val="VT7(PNT(6.8542216549102,1.654222218051)):40"/>
				<v:ud v:nameU="visIsConnected" v:prompt="" v:val="VT0(0):26"/>
			</v:userDefs>
			<path d="M9.21 237.24 A2.05442 2.1985 -180 1 0 5.1 237.24 A2.05442 2.1985 -180 1 0 9.21 237.24 ZM9.11 211.56 A4.05732
						 4.34186 0 0 1 11.75 214.38 A8.0377 8.60138 0 0 1 10.15 221.96 A16.9863 18.1775 -180 0 0 6.39 232.22 a0.819674
						 0.877157 -180 0 0 1.54082 0.22901 A15.527 16.6159 0 0 1 10.92 225.17 A29.5239 31.5944 -180 0 0 14.26 220.13
						 A6.82243 7.30088 -180 0 0 10.5 209.14 A9.05752 9.69272 -180 0 0 0.91 212.07 A5.2005 5.56521 -180 0 0 0.31
						 217.11 A1.87123 2.00245 -180 0 0 3.73 216.01 A5.36233 5.73839 -180 0 0 2.96 213.53 A5.54725 5.93627 0 0
						 1 9.11 211.56 Z" class="st7"/>
		</g>
		<g id="shape211-121" v:mID="211" v:groupContext="shape" v:layerMember="4" transform="translate(171,-18)">
			<title>12pt. text.211</title>
			<desc>Verify Connectivity from Source to Destination</desc>
			<v:userDefs>
				<v:ud v:nameU="AntiScale" v:val="VT0(1):26"/>
				<v:ud v:nameU="AutoWidth" v:val="VT0(0.375):0"/>
				<v:ud v:nameU="WidthIncrement" v:val="VT0(0.125):0"/>
				<v:ud v:nameU="visVersion" v:val="VT0(15):26"/>
				<v:ud v:nameU="AutoWidth" v:prompt="" v:val="VT0(3.375):0"/>
			</v:userDefs>
			<v:textBlock v:margins="rect(0,0,0,0)"/>
			<v:textRect cx="121.5" cy="230.442" width="243" height="18"/>
			<rect x="0" y="221.442" width="243" height="18" class="st8"/>
			<text x="5.32" y="234.04" class="st12" v:langID="1033"><v:paragraph v:horizAlign="1"/><v:tabList/>Verify Connectivity from Source to Destination</text>		</g>
	</g>
</svg>
